<svg version="1.2" xmlns="http://www.w3.org/2000/svg" viewBox="0 0 64 361" width="64" height="361">
	<title>Vector Smart Object</title>
	<defs>
		<clipPath clipPathUnits="userSpaceOnUse" id="cp1">
			<path d="m952.85 104.93l-85.86 7.01-57.61 63.3-27.85-62.04-29.56-7.42c-3.17 45.57-5.13 108.7-4.2 158.39 0 0 38.92 7 91.99 7 53.06 0 116.22-7 116.22-7 1.85-39.31 2.13-94.25-3.13-159.24z"/>
		</clipPath>
		<clipPath clipPathUnits="userSpaceOnUse" id="cp2">
			<path d="m62.39 210.53c-0.46 41.88-31.23 75.5-31.23 75.5 0 0-30.02-34.29-29.56-76.18 0.47-41.88 31.24-75.5 31.24-75.5 0 0 30.02 34.3 29.55 76.18z"/>
		</clipPath>
	</defs>
	<style>
		.s0 { fill: #090e40 } 
		.s1 { fill: #e8d6d6 } 
		.s2 { fill: #faded1 } 
		.s3 { fill: #faf6d1 } 
		.s4 { fill: #f7a766 } 
		.s5 { fill: #b86c08 } 
		.s6 { fill: #13ae67 } 
		.s7 { fill: #f8bd28 } 
		.s8 { fill: #273b4c } 
		.s9 { fill: #5654a1 } 
		.s10 { fill: #934216 } 
		.s11 { fill: #fcddd6 } 
		.s12 { fill: #dcdddd } 
		.s13 { fill: #f9c3c2 } 
		.s14 { fill: #490016 } 
		.s15 { fill: #ffffff } 
		.s16 { fill: none;stroke: #490016;stroke-miterlimit:10 } 
		.s17 { fill: #d8d663 } 
		.s18 { fill: #956d37 } 
		.s19 { fill: #919191 } 
		.s20 { fill: #a445bd } 
		.s21 { fill: #ffd600 } 
		.s22 { fill: none;stroke: #ff6036;stroke-linecap: round;stroke-miterlimit:10;stroke-width: 4 } 
	</style>
	<g id="레이어 1">
		<g id="&lt;Group&gt;">
			<g id="&lt;Group&gt;">
				<g id="&lt;Group&gt;">
					<path id="&lt;Path&gt;" class="s0" d=""/>
				</g>
				<g id="&lt;Group&gt;">
					<path id="&lt;Compound Path&gt;" fill-rule="evenodd" class="s0" d="m31.2 305.7c-6.2 0-11.3-5.1-11.3-11.3 0-6.3 5.1-11.3 11.3-11.3 6.3 0 11.3 5 11.3 11.3 0 6.2-5 11.3-11.3 11.3zm5.2-11.3c0-2.9-2.3-5.3-5.2-5.3-2.9 0-5.2 2.4-5.2 5.3 0 2.8 2.3 5.2 5.2 5.2 2.9 0 5.2-2.4 5.2-5.2z"/>
				</g>
				<path id="&lt;Path&gt;" class="s0" d="m49.3 340.1c-0.5-6.8-3.8-11.8-7-16.5-3.9-5.8-7.9-11.8-7.8-22l0.1-2h-6.9v1.9c-0.1 12.4 4.7 19.5 8.9 25.9 3.2 4.7 6 8.9 5.9 14.6 0 3.1-1.3 6.1-3.5 8.3-2.3 2.2-5.2 3.4-8.5 3.4-5.5-0.1-10.1-4-11.3-9.1h4.1l-8-13.9-6.9 13.7 3.8 0.1c0.6 3.9 2.3 7.5 5.1 10.4 3.5 3.5 8.2 5.5 13.2 5.6q0.1 0 0.2 0c9.5 0 17.4-7.1 18.5-16.5l0.2-3.9z"/>
			</g>
			<g id="&lt;Group&gt;">
				<g id="&lt;Group&gt;">
					<path id="&lt;Path&gt;" class="s1" d="m1234.9 46.9c-4.9 0-7.8-3.9-6.4-8.6l32.7-112.2c1.3-4.7 6.5-8.6 11.5-8.6h37.7c4.9 0 9 4 9 9v111.4c0 5-4.1 9-9 9z"/>
				</g>
				<g id="&lt;Group&gt;">
					<path id="&lt;Path&gt;" class="s2" d="m1310.4-82.5h-18c4.9 0 8.9 4 8.9 9v111.4c0 5-4 9-8.9 9h18c4.9 0 9-4 9-9v-111.4c0-5-4.1-9-9-9z"/>
					<path id="&lt;Path&gt;" class="s3" d="m1228.5 38.3c-1.4 4.7 1.5 8.6 6.4 8.6h57.5c4.9 0 8.9-4 8.9-9v-111.4c0-5-4-9-8.9-9h-19.7c-5 0-10.2 3.9-11.5 8.6z"/>
				</g>
				<g id="&lt;Group&gt;">
					<g id="&lt;Group&gt;">
						<path id="&lt;Path&gt;" class="s3" d="m966.3 49.7l-23.7 197.8c0 8.7 7.1 15.7 15.8 15.7h417.4c8.7 0 15.7-7 15.7-15.7l-23.7-197.8z"/>
					</g>
					<path id="&lt;Path&gt;" class="s4" d="m1395.5 50.5c0 6.9-5.6 12.6-12.6 12.6h-427.7c-7 0-12.6-5.7-12.6-12.6v-23.4c0-6.9 5.6-12.5 12.6-12.5h427.7c7 0 12.6 5.6 12.6 12.5z"/>
				</g>
			</g>
			<g id="&lt;Group&gt;">
				<path id="&lt;Path&gt;" class="s5" d="m1177.1 188.3c3.5 0.7 7-1.6 7.7-5.1 2-9.7-0.1-20.2-6.2-31.5-10.6-19.6-28.5-30.1-49.2-29-30.8 1.7-60.3 28-76.8 68.6-14.7 36.2-39 57.8-66.6 59.4-21.9 1.3-43.7-21.7-44-22.1-2.8-3-7.5-3.2-10.4-0.4-2.7 2.4-3.1 6.4-1.3 9.3q0.4 0.6 0.8 1.1c1.1 1.2 26.8 28.5 55.8 26.8 15.8-0.9 55.3-9.4 79.4-68.5 14.1-34.8 39.2-58.1 63.9-59.5 15-0.8 27.6 6.8 35.5 21.4q4 7.5 4.8 14 1.2 4.8 1.5 9.6c0.2 2.9 2.3 5.3 5.1 5.9z"/>
			</g>
			<g id="&lt;Group&gt;">
				<path id="&lt;Path&gt;" class="s5" d="m846.9 317.5c-17.4 42.4-86 39.6-94.9-8.9-6.9-37.5-4.9-139 0-202.9l200.8-0.8c8.2 91.7 3.1 161.7-0.5 190.9-9 72.4-107.2 74.7-109.4-2.5"/>
			</g>
			<path id="&lt;Path&gt;" fill-rule="evenodd" class="s5" d="m746.7 235.7c-30.4 0-55-24.6-55-55 0-30.4 24.6-55 55-55 30.4 0 55 24.6 55 55 0 30.4-24.6 55-55 55z"/>
			<path id="&lt;Path&gt;" class="s6" d="m803.8 188.5c7.7-28.5-9.2-57.8-37.7-65.4-28.4-7.7-57.7 9.2-65.4 37.6l-9.5 35.5 103 27.8"/>
			<path id="&lt;Path&gt;" class="s5" d="m952.8 104.9l-200.8 0.9c-3.2 45.5-5.2 108.7-4.2 158.4 0 0 38.9 7 92 7 53 0 116.2-7 116.2-7 1.8-39.3 2.1-94.3-3.2-159.3z"/>
			<g id="&lt;Group&gt;">
				<path id="&lt;Path&gt;" class="s7" d="m952.8 104.9l-85.8 7-57.6 63.3-27.9-62-29.5-7.4c-3.2 45.5-5.2 108.7-4.2 158.4 0 0 38.9 7 92 7 53 0 116.2-7 116.2-7 1.8-39.3 2.1-94.3-3.2-159.3z"/>
				<g id="&lt;Clip Group&gt;" clip-path="url(#cp1)">
					<path id="&lt;Path&gt;" class="s8" d="m848 201.6c-52.2-4-101.6-10-104.7-10.4l2.6-15.8c6.8 0.9 114.6 14.1 178.5 13.4l1.3 16c-22.6 0.2-50.6-1.2-77.7-3.2z"/>
					<path id="&lt;Compound Path&gt;" fill-rule="evenodd" class="s9" d="m822.6 202.6l-30.8-2.2 1.7-23.7 30.8 2.3zm-23.9-8.3l17.8 1.3 0.8-10.7-17.8-1.2z"/>
					<path id="&lt;Path&gt;" class="s8" d="m846.9 238.4c-55.2-3-108.5-7.8-111.8-8.2l3.8-23.2c1.2 0.1 120.7 14.2 188.7 10.3l1.4 22c-23.9 1.4-53.4 0.7-82.1-0.9z"/>
				</g>
			</g>
			<g id="&lt;Group&gt;">
			</g>
			<g id="&lt;Group&gt;">
			</g>
			<g id="&lt;Group&gt;">
			</g>
			<g id="&lt;Group&gt;">
				<g id="&lt;Group&gt;">
					<path id="&lt;Path&gt;" class="s10" d="m663 40.7c-80.9-52 0.8-162.3 59.3-108.6"/>
					<g id="&lt;Group&gt;">
						<g id="&lt;Group&gt;">
							<path id="&lt;Path&gt;" class="s5" d="m1009.2 116.8c106.6 25.4 127.6-132.2 37.8-137.4-1.5-218.2-306.5-267.6-351.1-44.3-57.2 27.8-84.7 140 22.8 192.4 14.9 7.2 30.9 12.3 47.3 16.3q16 3.9 31.7 6.5c78.3 15.6 169.5 0.5 211.5-33.5z"/>
							<path id="&lt;Path&gt;" class="s11" d="m1016.9 86.6c56.4 15.5 74.7-64.6 29.7-74.4"/>
						</g>
					</g>
				</g>
				<g id="&lt;Group&gt;">
					<path id="&lt;Path&gt;" class="s11" d="m829-58.2c-11.9-1.5-22.4-8.5-28.5-18.9-2.5-4.3-5.6-8.4-9.5-12.1-19.7-18.8-63.9-11.9-72.8 44.7-23.2 10-38.4 29.8-41.4 53.4-7.6 59.8 38.4 101 137.4 113.9 98.9 12.9 155.2-15 162.9-74.8 3-23.6-8.2-51.8-28-62.4 5-60.7-51.7-77.1-75.5-64-4.7 2.6-8.8 5.7-12.3 9.2-8.5 8.5-20.4 12.6-32.3 11z"/>
					<g id="&lt;Group&gt;" style="mix-blend-mode: multiply">
						<path id="&lt;Path&gt;" class="s12" d="m876.6-45.7c43.3 12.8 114.9 43.2 149.1 45.6 23 1.6 50.2 16.6 75.9 26.4-5.4-24.7-23.3-45.1-54.6-46.9-1.5-216.2-300.9-266.6-349.8-50.3 14.9 6.3 38 13.3 69.3 14.3 59.3 1.9 66.9-1.9 110.1 10.9z"/>
					</g>
					<path id="&lt;Path&gt;" fill-rule="evenodd" class="s13" d="m923.4 56.5c-16.6 0-30.1-13.5-30.1-30.1 0-16.6 13.5-30 30.1-30 16.6 0 30 13.4 30 30 0 16.6-13.4 30.1-30 30.1z"/>
					<path id="&lt;Path&gt;" fill-rule="evenodd" class="s13" d="m714.3 44.1c-14 0-25.4-13.4-25.4-30 0-16.6 11.4-30.1 25.4-30.1 14.1 0 25.5 13.5 25.5 30.1 0 16.6-11.4 30-25.5 30z"/>
					<g id="&lt;Group&gt;">
						<path id="&lt;Path&gt;" fill-rule="evenodd" class="s14" d="m798.6-11.8c-6.2 0-11.2-6.2-11.2-13.9 0-7.7 5-14 11.2-14 6.2 0 11.3 6.3 11.3 14 0 7.7-5.1 13.9-11.3 13.9z"/>
						<path id="&lt;Path&gt;" class="s14" d="m853.6-21c-1.1 7.4-8 12.7-15.3 11.6-7.3-1-12.2-7.8-11.1-15.2 1.2-7.5 8-12.7 15.3-11.7 7.3 1 12.3 7.9 11.1 15.3z"/>
					</g>
					<g id="&lt;Group&gt;">
						<g id="&lt;Group&gt;">
							<path id="&lt;Path&gt;" class="s15" d="m855 35.7c-0.8 23.9-17.2 42.7-40.9 42-23.7-0.7-38.6-20.5-37.9-44.3 0.7-23.8 16.7-42.7 40.4-41.9 23.8 0.7 39.1 20.4 38.4 44.2z"/>
							<g id="&lt;Group&gt;">
								<path id="&lt;Path&gt;" class="s16" d="m803.8 30.5c0 0 3.4 6 15.2 4.5 11.9-1.5 14.2-9.1 14.2-9.1"/>
								<path id="&lt;Path&gt;" class="s16" d="m831.3 22.3c0 0 0.7 5.1 6.1 4.8"/>
							</g>
							<path id="&lt;Path&gt;" class="s14" d="m825.8 9.5c-0.1 6.5-5.5 11.6-12 11.5-6.5-0.1-11.6-5.5-11.5-12 0.1-6.5 5.5-9.1 12-9 6.5 0.2 11.6 3 11.5 9.5z"/>
						</g>
					</g>
				</g>
			</g>
			<g id="&lt;Group&gt;">
				<g id="&lt;Group&gt;">
					<path id="&lt;Path&gt;" class="s17" d="m972.9-207.6c39.5 2.6 64.8 37.1 61.7 73.8-1.3 15.1 0.5 32.9 3 48.8-115.1-26.4-253.4-66.9-300.1-80.8 16.7-31.3 37.7-59.1 56.1-72.2 26.8-18.8 52.5-0.6 82.3 15.3 29.9 15.9 57.6 12.6 97 15.1z"/>
					<path id="&lt;Path&gt;" class="s18" d="m1037.6-85c1.5 9.3 3.3 17.9 4.9 24.8 0.7 3.6 2.1 7 4 10-124-27.6-281.9-74.3-323.8-86.8 1.4-1.8 2.5-3.9 3.5-6 3.5-7.7 7.1-15.4 11.3-22.8 46.7 13.9 185 54.4 300.1 80.8z"/>
					<path id="&lt;Path&gt;" class="s17" d="m1060.9-37.2c18.4 8.6 49.4 23.7 62.9 34.3 19.5 15.5 2.9 25.4-54.8 0.8-57.7-24.6-111.7-27.6-169.1-49.7-57.8-22.2-95.9-15-162.8-19.4-51.7-3.5-104.8-29.1-126.5-40.5-1.7-0.9-3.2-2.1-4.4-3.6-2.9-3.4-4-8.3-3-13.1 2.2-9.6 12.6-14.1 21.4-10 23.8 10.7 50.9 14 69.9 15 11.2 0.7 21.7-4.6 28.2-13.6 41.9 12.5 199.8 59.2 323.8 86.8 3.4 5.6 8.4 10.1 14.4 13z"/>
				</g>
				<path id="&lt;Path&gt;" class="s19" d="m949.3-97.7c3.1 3.7 2.6 9.1-1.1 12.1-3.6 3.1-9.1 2.6-12.1-1-3.1-3.7-2.6-9.1 1.1-12.2 3.6-3 9-2.5 12.1 1.1z"/>
				<path id="&lt;Path&gt;" class="s19" d="m980.3-89.8c3.1 3.6 2.6 9.1-1 12.1-3.7 3.1-9.1 2.6-12.2-1-3-3.7-2.6-9.1 1.1-12.2 3.6-3 9.1-2.5 12.1 1.1z"/>
				<path id="&lt;Path&gt;" class="s10" d="m945.7-94.6c1.3 1.6 1.1 4-0.5 5.4-1.7 1.4-4.1 1.2-5.5-0.5-1.3-1.6-1.1-4.1 0.5-5.4 1.7-1.4 4.1-1.2 5.5 0.5z"/>
				<path id="&lt;Path&gt;" class="s10" d="m976.7-86.8c1.4 1.7 1.1 4.1-0.5 5.5-1.6 1.4-4.1 1.1-5.4-0.5-1.4-1.6-1.2-4.1 0.4-5.4 1.7-1.4 4.1-1.2 5.5 0.4z"/>
			</g>
			<path id="&lt;Path&gt;" class="s0" d="m31.5 60.6l-1.1 75.1 5.4 0.3 1.1-75z"/>
			<g id="&lt;Group&gt;">
				<path id="&lt;Path&gt;" class="s20" d="m31.6 150.2l-15.9-33.1 36.5 0.4z"/>
				<g id="&lt;Group&gt;">
					<g id="&lt;Group&gt;">
						<path id="&lt;Path&gt;" class="s20" d="m62.4 210.5c-0.5 41.9-31.2 75.5-31.2 75.5 0 0-30.1-34.3-29.6-76.1 0.5-41.9 31.2-75.5 31.2-75.5 0 0 30.1 34.2 29.6 76.1z"/>
						<g id="&lt;Clip Group&gt;" clip-path="url(#cp2)">
							<path id="&lt;Path&gt;" fill-rule="evenodd" class="s21" d="m35.6 333.2c-28 0-50.6-22.6-50.6-50.6 0-27.9 22.6-50.5 50.6-50.5 27.9 0 50.5 22.6 50.5 50.5 0 28-22.6 50.6-50.5 50.6z"/>
						</g>
					</g>
					<path id="&lt;Path&gt;" fill-rule="evenodd" class="s0" d="m29.5 264.4c-2.8 0-5-2.2-5-5 0-2.7 2.2-4.9 5-4.9 2.7 0 4.9 2.2 4.9 4.9 0 2.8-2.2 5-4.9 5z"/>
				</g>
			</g>
			<path id="&lt;Path&gt;" class="s22" d="m33.8 67.9l0.8-66.1"/>
		</g>
	</g>
</svg>